<svg width="16" height="16" viewBox="0 0 16 16" fill="none" xmlns="http://www.w3.org/2000/svg">
<g clip-path="url(#clip0_73_1001)">
<path fill-rule="evenodd" clip-rule="evenodd" d="M12.3126 2.27164L10.8985 0.85752C9.72696 -0.314052 7.82746 -0.314052 6.65589 0.85752L6.06353 1.44988L0.551822 4.20573C0.264314 4.34949 0.0634373 4.62269 0.0119482 4.93998C-0.0395416 5.25727 0.0646339 5.57997 0.291929 5.80727L3.12036 8.63569L5.24168 10.757L7.363 12.8783L10.1914 15.7068C10.4187 15.9341 10.7414 16.0382 11.0587 15.9867C11.376 15.9353 11.6492 15.7344 11.793 15.4469L14.5488 9.93516L15.1412 9.3428C16.3127 8.17123 16.3127 6.27173 15.1412 5.10016L13.7269 3.68585L16.7068 0.705164L15.2924 -0.708862L12.3126 2.27164ZM13.727 7.92859C14.1175 7.53806 14.1175 6.9049 13.727 6.51437L11.6056 4.39305L9.48432 2.27173C9.09379 1.88121 8.46063 1.88121 8.0701 2.27173L13.727 7.92859ZM6.45844 3.48849L2.6872 5.37411L3.82746 6.51437L5.67024 4.6716L7.08445 6.08581L5.24168 7.92859L5.94878 8.63569L7.79156 6.79292L9.20577 8.20713L7.363 10.0499L8.0701 10.757L9.91288 8.91424L11.3271 10.3285L9.48432 12.1712L10.6246 13.3115L12.5102 9.54025L6.45844 3.48849Z" fill="#A3A9AE"/>
</g>
<defs>
<clipPath id="clip0_73_1001">
<rect width="16" height="16" fill="white"/>
</clipPath>
</defs>
</svg>
