<svg width="143" height="169" viewBox="0 0 143 169" fill="none" xmlns="http://www.w3.org/2000/svg">
<g opacity="0.2" filter="url(#filter0_d_214_249)">
<path d="M15.8112 35.0953C15.8112 33.9313 16.7562 32.9885 17.9221 32.9885H87.0542L101.303 47.209V144.645C101.303 145.809 100.358 146.752 99.1919 146.752H17.9221C16.7562 146.752 15.8112 145.809 15.8112 144.645V35.0953Z" fill="white"/>
</g>
<g opacity="0.2" filter="url(#filter1_d_214_249)">
<path d="M15.8112 144.645V35.0953C15.8112 34.004 16.642 33.1076 17.7066 33.0001L17.9221 32.9885H87.0542L101.303 47.209V144.645L101.291 144.86C101.191 145.852 100.401 146.64 99.4072 146.74L99.1919 146.752V48.0811L86.1803 35.0953H17.9221V146.752L17.7066 146.74C16.7128 146.64 15.9232 145.852 15.8224 144.86L15.8112 144.645ZM99.1919 144.645V146.752H17.9221V144.645H99.1919Z" fill="#CCCCCC"/>
</g>
<g opacity="0.4" filter="url(#filter2_d_214_249)">
<path d="M24.2549 26.6694C24.2549 25.5054 25.1999 24.5626 26.3658 24.5626H95.498L109.747 38.7831V136.219C109.747 137.383 108.802 138.326 107.636 138.326H26.3658C25.1999 138.326 24.2549 137.383 24.2549 136.219V26.6694Z" fill="white"/>
</g>
<g opacity="0.4" filter="url(#filter3_d_214_249)">
<path d="M24.2549 136.219V26.6694C24.2549 25.5781 25.0857 24.6817 26.1504 24.5742L26.3658 24.5626H95.498L109.747 38.7831V136.219L109.735 136.434C109.635 137.426 108.845 138.214 107.851 138.314L107.636 138.326V39.6552L94.624 26.6694H26.3658V138.326L26.1504 138.314C25.1566 138.214 24.367 137.426 24.2662 136.434L24.2549 136.219ZM107.636 136.219V138.326H26.3658V136.219H107.636Z" fill="#CCCCCC"/>
</g>
<g opacity="0.8" filter="url(#filter4_d_214_249)">
<path d="M31.6431 19.2936C31.6431 18.1301 32.5877 17.1869 33.754 17.1869H102.886L117.135 31.4073V128.844C117.135 130.008 116.19 130.95 115.024 130.95H33.754C32.5877 130.95 31.6431 130.008 31.6431 128.844V19.2936Z" fill="white"/>
</g>
<g opacity="0.8" filter="url(#filter5_d_214_249)">
<path d="M31.6431 128.844V19.2936C31.6431 18.2026 32.4737 17.3059 33.5387 17.1982L33.754 17.1869H102.886L117.135 31.4073V128.844L117.123 129.058C117.023 130.051 116.233 130.839 115.239 130.939L115.024 130.95V32.2795L102.012 19.2936H33.754V130.95L33.5387 130.939C32.5444 130.839 31.7549 130.051 31.6547 129.058L31.6431 128.844ZM115.024 128.844V130.95H33.754V128.844H115.024Z" fill="#CCCCCC"/>
</g>
<g filter="url(#filter6_d_214_249)">
<path d="M40.0867 10.8678C40.0867 9.70429 41.0313 8.76111 42.1976 8.76111H111.33L125.578 22.9815V120.418C125.578 121.582 124.634 122.525 123.467 122.525H42.1976C41.0313 122.525 40.0867 121.582 40.0867 120.418V10.8678Z" fill="white"/>
</g>
<g filter="url(#filter7_d_214_249)">
<path d="M40.0867 120.418V10.8678C40.0867 9.77687 40.9173 8.88013 41.9823 8.77238L42.1976 8.76111H111.33L125.578 22.9815V120.418L125.567 120.633C125.466 121.625 124.677 122.413 123.683 122.513L123.467 122.525V23.8537L110.456 10.8678H42.1976V122.525L41.9823 122.513C40.988 122.413 40.1985 121.625 40.0983 120.633L40.0867 120.418ZM123.467 120.418V122.525H42.1976V120.418H123.467Z" fill="#AAAAAA"/>
</g>
<path d="M109.746 8.76111L124.523 23.5082H110.802C110.219 23.5082 109.746 23.0363 109.746 22.4549V8.76111Z" fill="#AAAAAA"/>
<path d="M41.0324 64.2497C41.1706 64.7775 40.8836 65.3157 40.3822 65.5022L40.2798 65.5359L38.209 66.0847C36.0306 66.6535 33.5745 67.2234 31.2378 67.2666C28.1552 67.3224 25.0905 66.4639 23.0334 63.4249L22.837 63.1247C22.3533 62.3516 22.3468 61.4478 22.5156 60.6261C22.6862 59.7961 23.0641 58.9049 23.542 58.0127C24.5005 56.2241 25.9795 54.2175 27.4956 52.3298C29.0168 50.4359 30.6203 48.6051 31.8373 47.1852C32.4515 46.4679 32.9592 45.8643 33.3202 45.3998C33.5017 45.1659 33.6326 44.9847 33.7181 44.851C33.7582 44.7878 33.7793 44.7498 33.7877 44.734C33.9345 44.2147 34.4558 43.884 34.9973 43.9851C35.5345 44.0862 35.8997 44.576 35.8533 45.109L35.8395 45.2144L35.8121 45.3302C35.7382 45.5967 35.5926 45.8348 35.4976 45.9844C35.3625 46.1961 35.1873 46.4352 34.9899 46.6901C34.5941 47.2 34.0548 47.8393 33.4426 48.5546C32.2056 49.9987 30.6362 51.7874 29.1421 53.6476C27.6434 55.5131 26.2665 57.3965 25.4037 59.0071C24.9711 59.814 24.6957 60.5018 24.583 61.0507C24.4689 61.6058 24.5477 61.8807 24.6274 62.0082L24.7739 62.2325C26.3033 64.4994 28.5556 65.2072 31.1987 65.1588C33.2959 65.1208 35.5187 64.6068 37.6507 64.0506L39.7437 63.4976L39.8503 63.4755C40.378 63.3923 40.8941 63.722 41.0324 64.2497Z" fill="#AAAAAA"/>
<path d="M33.2832 37.7033C32.4177 38.408 31.3179 39.9596 31.3296 41.7367L31.3369 41.9653C31.4457 43.9898 32.7945 44.981 33.7877 45.5857L34.1993 45.8301L34.2954 45.8806C34.7809 46.105 35.3667 45.9301 35.6453 45.4614C35.9239 44.9926 35.7962 44.3954 35.3667 44.0783L35.2759 44.0183L34.878 43.7792C34.059 43.2725 33.5291 42.8227 33.451 41.9347L33.4405 41.7219C33.4341 40.7539 34.097 39.7595 34.6162 39.3371C35.068 38.9705 35.1366 38.3069 34.7682 37.855C34.4009 37.4042 33.736 37.3368 33.2832 37.7033Z" fill="#AAAAAA"/>
<path d="M123.572 63.1955C123.434 63.7233 123.722 64.2615 124.223 64.448L124.325 64.4817L126.396 65.0305C128.574 65.5993 131.03 66.1692 133.366 66.2124C136.449 66.2682 139.514 65.4097 141.572 62.3707L141.768 62.0705C142.251 61.2974 142.258 60.3936 142.089 59.5719C141.919 58.7419 141.541 57.8507 141.063 56.9585C140.104 55.1699 138.625 53.1633 137.109 51.2756C135.588 49.3817 133.984 47.5509 132.767 46.131C132.154 45.4137 131.645 44.8101 131.284 44.3456C131.102 44.1117 130.972 43.9305 130.887 43.7968C130.846 43.7336 130.825 43.6956 130.816 43.6798C130.67 43.1605 130.148 42.8298 129.607 42.9309C129.07 43.032 128.706 43.5218 128.751 44.0548L128.766 44.1602L128.792 44.276C128.867 44.5425 129.012 44.7806 129.107 44.9302C129.242 45.1419 129.417 45.381 129.614 45.6359C130.011 46.1458 130.549 46.7851 131.163 47.5004C132.4 48.9445 133.969 50.7332 135.463 52.5934C136.961 54.4589 138.338 56.3423 139.201 57.9529C139.634 58.7598 139.909 59.4476 140.021 59.9965C140.135 60.5516 140.057 60.8265 139.977 60.954L139.831 61.1783C138.302 63.4452 136.049 64.153 133.405 64.1046C131.308 64.0666 129.086 63.5526 126.953 62.9964L124.861 62.4434L124.755 62.4213C124.226 62.3381 123.711 62.6678 123.572 63.1955Z" fill="#AAAAAA"/>
<path d="M131.321 36.6497C132.187 37.3545 133.287 38.9061 133.275 40.6831L133.267 40.9117C133.158 42.9362 131.81 43.9274 130.817 44.5321L130.405 44.7765L130.309 44.827C129.823 45.0514 129.237 44.8765 128.959 44.4078C128.68 43.939 128.808 43.3418 129.238 43.0247L129.328 42.9647L129.727 42.7256C130.546 42.2189 131.076 41.7691 131.153 40.8811L131.164 40.6683C131.17 39.7003 130.507 38.7059 129.988 38.2835C129.536 37.917 129.468 37.2533 129.836 36.8014C130.204 36.3506 130.869 36.2832 131.321 36.6497Z" fill="#AAAAAA"/>
<path d="M74.6073 43.0723L74.6801 43.1524C75.0179 43.5664 74.9936 44.1763 74.6073 44.5618C74.221 44.9473 73.6099 44.9715 73.1951 44.6345L73.1149 44.5618L66.7822 38.2416C66.3695 37.8308 66.3695 37.1629 66.7822 36.7521C67.1938 36.3403 67.863 36.3403 68.2746 36.7521L74.6073 43.0723Z" fill="#AAAAAA"/>
<path d="M73.1149 36.7518L73.1951 36.6791C73.6099 36.342 74.221 36.3662 74.6073 36.7518C74.9936 37.1373 75.0179 37.7472 74.6801 38.1612L74.6073 38.2412L68.2746 44.5614C67.863 44.9733 67.1938 44.9733 66.7822 44.5614C66.3695 44.1506 66.3695 43.4828 66.7822 43.072L73.1149 36.7518Z" fill="#AAAAAA"/>
<path d="M97.8273 43.0723L97.9001 43.1524C98.2378 43.5664 98.2136 44.1763 97.8273 44.5618C97.441 44.9473 96.8299 44.9715 96.4151 44.6345L96.3349 44.5618L90.0021 38.2416C89.5895 37.8308 89.5895 37.1629 90.0021 36.7521C90.4138 36.3403 91.0829 36.3403 91.4946 36.7521L97.8273 43.0723Z" fill="#AAAAAA"/>
<path d="M96.3349 36.7518L96.4151 36.6791C96.8299 36.342 97.441 36.3662 97.8273 36.7518C98.2136 37.1373 98.2378 37.7472 97.9001 38.1612L97.8273 38.2412L91.4946 44.5614C91.0829 44.9733 90.4138 44.9733 90.0021 44.5614C89.5895 44.1506 89.5895 43.4828 90.0021 43.072L96.3349 36.7518Z" fill="#AAAAAA"/>
<path d="M85.4711 55.6364C85.4711 58.254 84.2901 60.3765 82.8325 60.3765C81.3749 60.3765 80.1938 58.254 80.1938 55.6364C80.1938 53.0188 81.3749 50.8962 82.8325 50.8962C84.2901 50.8962 85.4711 53.0188 85.4711 55.6364Z" fill="#AAAAAA"/>
<defs>
<filter id="filter0_d_214_249" x="0.811157" y="24.9885" width="115.492" height="143.763" filterUnits="userSpaceOnUse" color-interpolation-filters="sRGB">
<feFlood flood-opacity="0" result="BackgroundImageFix"/>
<feColorMatrix in="SourceAlpha" type="matrix" values="0 0 0 0 0 0 0 0 0 0 0 0 0 0 0 0 0 0 127 0" result="hardAlpha"/>
<feOffset dy="7"/>
<feGaussianBlur stdDeviation="7.5"/>
<feColorMatrix type="matrix" values="0 0 0 0 0.333333 0 0 0 0 0.333333 0 0 0 0 0.333333 0 0 0 0.1 0"/>
<feBlend mode="normal" in2="BackgroundImageFix" result="effect1_dropShadow_214_249"/>
<feBlend mode="normal" in="SourceGraphic" in2="effect1_dropShadow_214_249" result="shape"/>
</filter>
<filter id="filter1_d_214_249" x="0.811157" y="24.9885" width="115.492" height="143.763" filterUnits="userSpaceOnUse" color-interpolation-filters="sRGB">
<feFlood flood-opacity="0" result="BackgroundImageFix"/>
<feColorMatrix in="SourceAlpha" type="matrix" values="0 0 0 0 0 0 0 0 0 0 0 0 0 0 0 0 0 0 127 0" result="hardAlpha"/>
<feOffset dy="7"/>
<feGaussianBlur stdDeviation="7.5"/>
<feColorMatrix type="matrix" values="0 0 0 0 0.333333 0 0 0 0 0.333333 0 0 0 0 0.333333 0 0 0 0.1 0"/>
<feBlend mode="normal" in2="BackgroundImageFix" result="effect1_dropShadow_214_249"/>
<feBlend mode="normal" in="SourceGraphic" in2="effect1_dropShadow_214_249" result="shape"/>
</filter>
<filter id="filter2_d_214_249" x="9.25488" y="16.5626" width="115.492" height="143.763" filterUnits="userSpaceOnUse" color-interpolation-filters="sRGB">
<feFlood flood-opacity="0" result="BackgroundImageFix"/>
<feColorMatrix in="SourceAlpha" type="matrix" values="0 0 0 0 0 0 0 0 0 0 0 0 0 0 0 0 0 0 127 0" result="hardAlpha"/>
<feOffset dy="7"/>
<feGaussianBlur stdDeviation="7.5"/>
<feColorMatrix type="matrix" values="0 0 0 0 0.333333 0 0 0 0 0.333333 0 0 0 0 0.333333 0 0 0 0.1 0"/>
<feBlend mode="normal" in2="BackgroundImageFix" result="effect1_dropShadow_214_249"/>
<feBlend mode="normal" in="SourceGraphic" in2="effect1_dropShadow_214_249" result="shape"/>
</filter>
<filter id="filter3_d_214_249" x="9.25488" y="16.5626" width="115.492" height="143.763" filterUnits="userSpaceOnUse" color-interpolation-filters="sRGB">
<feFlood flood-opacity="0" result="BackgroundImageFix"/>
<feColorMatrix in="SourceAlpha" type="matrix" values="0 0 0 0 0 0 0 0 0 0 0 0 0 0 0 0 0 0 127 0" result="hardAlpha"/>
<feOffset dy="7"/>
<feGaussianBlur stdDeviation="7.5"/>
<feColorMatrix type="matrix" values="0 0 0 0 0.333333 0 0 0 0 0.333333 0 0 0 0 0.333333 0 0 0 0.1 0"/>
<feBlend mode="normal" in2="BackgroundImageFix" result="effect1_dropShadow_214_249"/>
<feBlend mode="normal" in="SourceGraphic" in2="effect1_dropShadow_214_249" result="shape"/>
</filter>
<filter id="filter4_d_214_249" x="16.6431" y="9.18689" width="115.492" height="143.763" filterUnits="userSpaceOnUse" color-interpolation-filters="sRGB">
<feFlood flood-opacity="0" result="BackgroundImageFix"/>
<feColorMatrix in="SourceAlpha" type="matrix" values="0 0 0 0 0 0 0 0 0 0 0 0 0 0 0 0 0 0 127 0" result="hardAlpha"/>
<feOffset dy="7"/>
<feGaussianBlur stdDeviation="7.5"/>
<feColorMatrix type="matrix" values="0 0 0 0 0.333333 0 0 0 0 0.333333 0 0 0 0 0.333333 0 0 0 0.1 0"/>
<feBlend mode="normal" in2="BackgroundImageFix" result="effect1_dropShadow_214_249"/>
<feBlend mode="normal" in="SourceGraphic" in2="effect1_dropShadow_214_249" result="shape"/>
</filter>
<filter id="filter5_d_214_249" x="16.6431" y="9.18689" width="115.492" height="143.763" filterUnits="userSpaceOnUse" color-interpolation-filters="sRGB">
<feFlood flood-opacity="0" result="BackgroundImageFix"/>
<feColorMatrix in="SourceAlpha" type="matrix" values="0 0 0 0 0 0 0 0 0 0 0 0 0 0 0 0 0 0 127 0" result="hardAlpha"/>
<feOffset dy="7"/>
<feGaussianBlur stdDeviation="7.5"/>
<feColorMatrix type="matrix" values="0 0 0 0 0.333333 0 0 0 0 0.333333 0 0 0 0 0.333333 0 0 0 0.1 0"/>
<feBlend mode="normal" in2="BackgroundImageFix" result="effect1_dropShadow_214_249"/>
<feBlend mode="normal" in="SourceGraphic" in2="effect1_dropShadow_214_249" result="shape"/>
</filter>
<filter id="filter6_d_214_249" x="25.0867" y="0.761108" width="115.492" height="143.763" filterUnits="userSpaceOnUse" color-interpolation-filters="sRGB">
<feFlood flood-opacity="0" result="BackgroundImageFix"/>
<feColorMatrix in="SourceAlpha" type="matrix" values="0 0 0 0 0 0 0 0 0 0 0 0 0 0 0 0 0 0 127 0" result="hardAlpha"/>
<feOffset dy="7"/>
<feGaussianBlur stdDeviation="7.5"/>
<feColorMatrix type="matrix" values="0 0 0 0 0.333333 0 0 0 0 0.333333 0 0 0 0 0.333333 0 0 0 0.1 0"/>
<feBlend mode="normal" in2="BackgroundImageFix" result="effect1_dropShadow_214_249"/>
<feBlend mode="normal" in="SourceGraphic" in2="effect1_dropShadow_214_249" result="shape"/>
</filter>
<filter id="filter7_d_214_249" x="25.0867" y="0.761108" width="115.492" height="143.763" filterUnits="userSpaceOnUse" color-interpolation-filters="sRGB">
<feFlood flood-opacity="0" result="BackgroundImageFix"/>
<feColorMatrix in="SourceAlpha" type="matrix" values="0 0 0 0 0 0 0 0 0 0 0 0 0 0 0 0 0 0 127 0" result="hardAlpha"/>
<feOffset dy="7"/>
<feGaussianBlur stdDeviation="7.5"/>
<feColorMatrix type="matrix" values="0 0 0 0 0.333333 0 0 0 0 0.333333 0 0 0 0 0.333333 0 0 0 0.1 0"/>
<feBlend mode="normal" in2="BackgroundImageFix" result="effect1_dropShadow_214_249"/>
<feBlend mode="normal" in="SourceGraphic" in2="effect1_dropShadow_214_249" result="shape"/>
</filter>
</defs>
</svg>
