<svg width="16" height="16" viewBox="0 0 16 16" fill="none" xmlns="http://www.w3.org/2000/svg">
<g clip-path="url(#clip0_96_2157)">
<path d="M8 0C12.4183 0 16 3.58172 16 8C16 12.4183 12.4183 16 8 16C3.58172 16 0 12.4183 0 8C0 3.58172 3.58172 0 8 0ZM8 2C4.68629 2 2 4.68629 2 8C2 11.3137 4.68629 14 8 14C11.3137 14 14 11.3137 14 8C14 4.68629 11.3137 2 8 2Z" fill="#FFFFFF"/>
<path d="M6.80762 9.22852V8.7666C6.80762 8.5446 6.83447 8.34408 6.88818 8.16504C6.94548 7.986 7.04574 7.81592 7.18896 7.65479C7.33219 7.49365 7.53092 7.33252 7.78516 7.17139C8.02865 7.01742 8.20768 6.88493 8.32227 6.77393C8.43685 6.65934 8.51204 6.5555 8.54785 6.4624C8.58366 6.36572 8.60156 6.26904 8.60156 6.17236C8.60156 6.02197 8.53353 5.90381 8.39746 5.81787C8.26139 5.72835 8.08415 5.68359 7.86572 5.68359C7.59359 5.68359 7.29818 5.73193 6.97949 5.82861C6.66439 5.92529 6.3278 6.06852 5.96973 6.2583L5.22314 4.79736C5.62777 4.56462 6.05924 4.38021 6.51758 4.24414C6.97591 4.10449 7.47542 4.03467 8.01611 4.03467C8.82894 4.03467 9.45915 4.21549 9.90674 4.57715C10.3543 4.93522 10.5781 5.40788 10.5781 5.99512C10.5781 6.27441 10.5352 6.53044 10.4492 6.76318C10.3633 6.99593 10.2272 7.21436 10.041 7.41846C9.85482 7.62256 9.60954 7.82308 9.30518 8.02002C9.09033 8.15609 8.92025 8.27246 8.79492 8.36914C8.67318 8.46582 8.58545 8.55892 8.53174 8.64844C8.48161 8.73796 8.45654 8.84001 8.45654 8.95459V9.22852H6.80762ZM6.57666 11.1084C6.57666 10.7288 6.68587 10.4621 6.9043 10.3081C7.1263 10.1541 7.39486 10.0771 7.70996 10.0771C8.01074 10.0771 8.27034 10.1541 8.48877 10.3081C8.71077 10.4621 8.82178 10.7288 8.82178 11.1084C8.82178 11.4701 8.71077 11.7314 8.48877 11.8926C8.27034 12.0537 8.01074 12.1343 7.70996 12.1343C7.39486 12.1343 7.1263 12.0537 6.9043 11.8926C6.68587 11.7314 6.57666 11.4701 6.57666 11.1084Z" fill="#FFFFFF"/>
</g>
<defs>
<clipPath id="clip0_96_2157">
<rect width="16" height="16" fill="white"/>
</clipPath>
</defs>
</svg>

