<svg width="18" height="17" viewBox="0 0 18 17" fill="none" xmlns="http://www.w3.org/2000/svg">
<path fill-rule="evenodd" clip-rule="evenodd" d="M7.89992 16.7917L0.474408 13.2918C-0.158136 12.9862 -0.158136 12.514 0.474408 12.2363L3.05959 11.0141L7.87242 13.2918C8.50497 13.5973 9.52254 13.5973 10.1276 13.2918L14.9404 11.0141L17.5256 12.2363C18.1581 12.5418 18.1581 13.014 17.5256 13.2918L10.1001 16.7917C9.52254 17.0694 8.50497 17.0694 7.89992 16.7917Z" fill="#FF6F3D"/>
<path fill-rule="evenodd" clip-rule="evenodd" d="M7.87586 12.4607L0.472963 8.95676C-0.157654 8.65086 -0.157654 8.17811 0.472963 7.90002L2.99543 6.70422L7.87586 9.01238C8.50647 9.31828 9.52095 9.31828 10.1241 9.01238L15.0046 6.70422L17.527 7.90002C18.1577 8.20592 18.1577 8.67867 17.527 8.95676L10.1241 12.4607C9.49353 12.7666 8.47906 12.7666 7.87586 12.4607Z" fill="#95C038"/>
<path fill-rule="evenodd" clip-rule="evenodd" d="M7.87586 8.17472L0.472963 4.72119C-0.157654 4.41969 -0.157654 3.95374 0.472963 3.67965L7.87586 0.226124C8.50647 -0.0753746 9.52095 -0.0753746 10.1241 0.226124L17.527 3.67965C18.1577 3.98115 18.1577 4.4471 17.527 4.72119L10.1241 8.17472C9.49353 8.44881 8.47906 8.44881 7.87586 8.17472Z" fill="#5DC0E8"/>
</svg>
