<svg width="16" height="16" viewBox="0 0 16 16" fill="none" xmlns="http://www.w3.org/2000/svg">
<g clip-path="url(#clip0_22_28453)">
<path fill-rule="evenodd" clip-rule="evenodd" d="M7.99945 2.00024C7.4473 2.00023 6.9997 2.44783 6.9997 2.99997V3.5002C6.9997 4.41155 7.15503 5.10395 7.38205 5.52961C7.58916 5.91795 7.79352 6.0002 7.9997 6.0002C8.20579 6.0002 8.40999 5.91805 8.61699 5.52976C8.84392 5.10409 8.99916 4.41166 8.99916 3.5002V2.99997C8.99916 2.44785 8.55157 2.00026 7.99945 2.00024ZM4.9997 2.99997C4.9997 1.34324 6.34276 0.000208379 7.99949 0.000244141C9.65617 0.000279904 10.9992 1.34329 10.9992 2.99997V3.5002C10.9992 4.58874 10.8213 5.64631 10.3819 6.47064C9.92246 7.33236 9.12694 8.0002 7.9997 8.0002C6.87254 8.0002 6.0769 7.33245 5.61734 6.47079C5.1777 5.64645 4.9997 4.58885 4.9997 3.5002V2.99997ZM2.19486 10.6852C2.81702 9.64709 3.85357 8.64296 5.42864 8.64296C5.72234 8.64296 5.9725 8.74317 6.10807 8.80253C6.25233 8.86569 6.40447 8.94726 6.52657 9.01273L6.54384 9.02198C7.02258 9.27854 7.46362 9.5001 8.00006 9.5001C8.53622 9.5001 8.97707 9.27863 9.4558 9.02206C9.46149 9.01901 9.46726 9.01592 9.4731 9.01279C9.59529 8.94727 9.74757 8.86562 9.89198 8.80241C10.0277 8.74302 10.2782 8.64267 10.5725 8.64296C12.1468 8.64447 13.183 9.64822 13.8051 10.6861C14.4244 11.7191 14.7451 12.9473 14.8913 13.8464C15.0937 15.0912 14.0725 16.0002 13.0001 16.0002H3.00006C1.92759 16.0002 0.906516 15.0912 1.1088 13.8465C1.25495 12.9472 1.57564 11.7184 2.19486 10.6852ZM3.11175 14.0002H12.8883C12.7537 13.2638 12.497 12.3937 12.0897 11.7144C11.6785 11.0283 11.2145 10.6831 10.6682 10.6463C10.6447 10.6572 10.6155 10.6716 10.5787 10.6905C10.5268 10.7172 10.4702 10.7475 10.4005 10.7849C10.3896 10.7907 10.3785 10.7967 10.3672 10.8028C9.89817 11.0545 9.06781 11.5001 8.00006 11.5001C6.93207 11.5001 6.10156 11.0544 5.63248 10.8027C5.62116 10.7966 5.61004 10.7907 5.59915 10.7848C5.52951 10.7475 5.47295 10.7172 5.42114 10.6906C5.38419 10.6716 5.35488 10.6571 5.33135 10.6461C4.78542 10.6824 4.32171 11.027 3.91036 11.7133C3.5031 12.3929 3.2464 13.2635 3.11175 14.0002Z" fill="#333333"/>
</g>
<defs>
<clipPath id="clip0_22_28453">
<rect width="16" height="16" fill="white"/>
</clipPath>
</defs>
</svg>
