<svg width="32" height="32" viewBox="0 0 32 32" fill="none" xmlns="http://www.w3.org/2000/svg">
<path d="M7 1.5H20.5859C20.7185 1.50004 20.8457 1.55275 20.9395 1.64648L26.3535 7.06055C26.4472 7.15428 26.5 7.28151 26.5 7.41406V29C26.5 29.8284 25.8284 30.5 25 30.5H7C6.17157 30.5 5.5 29.8284 5.5 29V3C5.5 2.17157 6.17157 1.5 7 1.5Z" fill="white" stroke="#BBBBBB"/>
<path d="M20.5 2V6C20.5 6.82843 21.1716 7.5 22 7.5H26" stroke="#BBBBBB"/>
<path d="M16.4996 10.0214C17.5101 10.1058 18.486 10.4452 19.3336 11.0116C20.3202 11.6709 21.0895 12.6077 21.5436 13.704C21.9977 14.8003 22.1159 16.0069 21.8844 17.1708C21.6529 18.3346 21.0819 19.404 20.2428 20.243C19.4037 21.0821 18.3344 21.6531 17.1705 21.8846C16.0067 22.1162 14.8001 21.9979 13.7038 21.5438C12.6075 21.0897 11.6706 20.3204 11.0114 19.3339C10.445 18.4862 10.1056 17.5104 10.0211 16.4999C9.99816 16.2248 10.2236 16 10.4996 15.9999H15.4996C15.7758 15.9999 15.9996 15.776 15.9996 15.4999V10.4999C15.9998 10.2239 16.2246 9.99839 16.4996 10.0214ZM13.5006 9.02527C13.7753 8.99771 13.9995 9.22387 13.9996 9.49988V13.4999C13.9996 13.776 13.7758 13.9999 13.4996 13.9999H9.49965C9.22364 13.9997 8.99748 13.7755 9.02504 13.5009C9.07375 13.0156 9.19318 12.5391 9.38051 12.0868C9.63178 11.4802 10.0002 10.929 10.4645 10.4647C10.9288 10.0004 11.4799 9.63201 12.0866 9.38074C12.5388 9.19341 13.0153 9.07398 13.5006 9.02527Z" fill="#FAC299"/>
<path d="M16 18C16 16.8954 16.8954 16 18 16H26C27.1046 16 28 16.8954 28 18V26C28 27.1046 27.1046 28 26 28H18C16.8954 28 16 27.1046 16 26V18Z" fill="#F36700"/>
<path d="M22.0606 18.4596C22.9739 18.4596 23.6473 18.6596 24.0806 19.0596C24.5206 19.4529 24.7406 20.0029 24.7406 20.7096C24.7406 21.0296 24.6939 21.3363 24.6006 21.6296C24.5073 21.9163 24.3506 22.1729 24.1306 22.3996C23.9173 22.6263 23.6339 22.8063 23.2806 22.9396C22.9339 23.0729 22.5039 23.1396 21.9906 23.1396H21.3906V25.5996H19.6906V18.4596H22.0606ZM22.0006 19.8496H21.3906V21.7496H21.8406C22.0739 21.7496 22.2773 21.7163 22.4506 21.6496C22.6306 21.5829 22.7706 21.4763 22.8706 21.3296C22.9706 21.1829 23.0206 20.9929 23.0206 20.7596C23.0206 20.4663 22.9373 20.2429 22.7706 20.0896C22.6039 19.9296 22.3473 19.8496 22.0006 19.8496Z" fill="white"/>
</svg>
