<svg width="16" height="16" viewBox="0 0 16 16" fill="none" xmlns="http://www.w3.org/2000/svg">
<path d="M14 1C15.1046 1 16 1.89543 16 3V11C16 12.1046 15.1046 13 14 13H5.41406L3.41406 15C2.15416 16.2598 0.000122215 15.3676 0 13.5859V3C2.57706e-07 1.89543 0.89543 1 2 1H14ZM2 13.5859L4 11.5859C4.37504 11.2109 4.88368 11 5.41406 11H14V3H2V13.5859ZM5 6C5.55228 6 6 6.44772 6 7C6 7.55228 5.55228 8 5 8C4.44772 8 4 7.55228 4 7C4 6.44772 4.44772 6 5 6ZM8 6C8.55229 6 9 6.44772 9 7C9 7.55228 8.55229 8 8 8C7.44772 8 7 7.55228 7 7C7 6.44772 7.44772 6 8 6ZM11 6C11.5523 6 12 6.44772 12 7C12 7.55228 11.5523 8 11 8C10.4477 8 10 7.55228 10 7C10 6.44772 10.4477 6 11 6Z" fill="#333333"/>
</svg>
