<svg width="16" height="16" viewBox="0 0 16 16" fill="none" xmlns="http://www.w3.org/2000/svg">
<path fill-rule="evenodd" clip-rule="evenodd" d="M8.00001 1C8.29194 1 8.56929 1.12756 8.75927 1.34921L14.7593 8.34921C15.0134 8.64572 15.0717 9.06306 14.9085 9.41786C14.7453 9.77266 14.3905 10 14 10H10.994V12H8.994V9C8.994 8.44772 9.44171 8 9.994 8H11.8258L8.00001 3.53659L4.17423 8H5.99386C6.54614 8 6.99386 8.44772 6.99386 9V12H4.99386V10H2.00001C1.60948 10 1.25469 9.77266 1.0915 9.41786C0.928316 9.06306 0.986604 8.64572 1.24076 8.34921L7.24076 1.34921C7.43074 1.12756 7.70809 1 8.00001 1ZM15 13V15H1.00001V13H15Z" fill="white"/>
</svg>
