<svg width="166" height="141" viewBox="0 0 166 141" fill="none" xmlns="http://www.w3.org/2000/svg">
<path d="M112.855 21.7192H49.8309C48.055 21.7192 46.6154 22.9728 46.6154 24.5192V105.158C46.6154 106.704 48.055 107.958 49.8309 107.958H112.855C114.631 107.958 116.071 106.704 116.071 105.158V24.5192C116.071 22.9728 114.631 21.7192 112.855 21.7192Z" stroke="#CCCCCC" stroke-width="3"/>
<path d="M98.7068 35.7192H65.2654C63.1343 35.7192 61.4067 37.2235 61.4067 39.0792V62.5989C61.4067 64.4545 63.1343 65.9588 65.2654 65.9588H98.7068C100.838 65.9588 102.565 64.4545 102.565 62.5989V39.0792C102.565 37.2235 100.838 35.7192 98.7068 35.7192Z" stroke="#CCCCCC" stroke-width="2"/>
<path opacity="0.58" d="M88.8107 45.154V49.6978C88.8107 50.4883 89.5467 51.1292 90.4545 51.1292C91.3623 51.1292 92.0983 50.4883 92.0983 49.6978V45.154C92.0983 44.3635 91.3623 43.7227 90.4545 43.7227C89.5467 43.7227 88.8107 44.3635 88.8107 45.154Z" fill="#9E9E9E"/>
<path opacity="0.58" d="M72.3871 45.154V49.6978C72.3871 50.4883 73.1231 51.1292 74.0309 51.1292C74.9388 51.1292 75.6747 50.4883 75.6747 49.6978V45.154C75.6747 44.3635 74.9388 43.7227 74.0309 43.7227C73.1231 43.7227 72.3871 44.3635 72.3871 45.154Z" fill="#9E9E9E"/>
<path opacity="0.58" d="M80.5918 59.1739H84.2408C84.566 59.199 84.8894 59.1119 85.1416 58.9313C85.3937 58.7507 85.5542 58.4912 85.5887 58.2085V56.2855C85.4445 55.645 85.0492 55.068 84.4704 54.6532C83.8916 54.2385 83.1652 54.0117 82.4156 54.0117C81.666 54.0117 80.9398 54.2385 80.361 54.6532C79.7822 55.068 79.3869 55.645 79.2426 56.2855V58.2085C79.2774 58.4912 79.4382 58.7508 79.6906 58.9314C79.9429 59.1119 80.2665 59.199 80.5918 59.1739Z" fill="#9E9E9E"/>
<path d="M127.843 141V136.193C124.953 133.069 121.267 131.028 117.296 130.352C111.638 129.478 106.402 132.2 101.314 134.573C96.671 136.738 90.1021 139.63 85.4591 135.944C84.2509 134.931 83.2944 133.588 82.6807 132.044C82.067 130.499 81.8166 128.805 81.9531 127.121C81.7217 127.166 81.4878 127.193 81.2531 127.202C81.1891 127.202 81.1261 127.202 81.0621 127.202H80.3171C79.9272 127.201 79.5384 127.155 79.1571 127.064C79.0439 128.987 79.3095 130.914 79.935 132.709C83.481 142.968 93.8811 141.326 101.272 137.943C105.584 135.97 109.998 133.392 114.76 133.293C119.622 133.191 125.393 136.222 127.843 141Z" fill="#CCCCCC"/>
<path opacity="0.16" d="M79.136 127.815C79.136 127.561 79.148 127.316 79.16 127.065C79.5409 127.157 79.9294 127.203 80.319 127.204H81.064C81.128 127.204 81.191 127.204 81.255 127.204C81.4897 127.195 81.7237 127.168 81.9551 127.123C81.8189 128.807 82.0696 130.501 82.6835 132.046C83.2973 133.59 84.2538 134.933 85.462 135.946C90.104 139.632 96.675 136.74 101.316 134.576C106.404 132.202 111.64 129.48 117.298 130.354C121.269 131.03 124.956 133.071 127.846 136.195V137.481C124.953 134.284 121.236 132.186 117.221 131.481C111.521 130.585 106.252 133.378 101.128 135.819C96.4541 138.041 89.836 141.009 85.162 137.224C84.0524 136.281 83.1331 135.085 82.4644 133.716C81.7956 132.347 81.3924 130.836 81.281 129.28C81.2611 128.925 81.1266 128.589 80.9023 128.336C80.6781 128.084 80.3794 127.931 80.062 127.906C79.73 127.877 79.387 127.847 79.136 127.815Z" fill="#CCCCCC"/>
<path d="M66.599 108.613V95.1555H94.75V108.613C94.7517 110.452 94.4296 112.274 93.802 113.973C93.1744 115.672 92.2537 117.216 91.0927 118.517C89.9316 119.817 88.553 120.848 87.0357 121.551C85.5183 122.254 83.892 122.615 82.25 122.613H79.093C77.4509 122.616 75.8245 122.255 74.3069 121.552C72.7893 120.85 71.4103 119.819 70.2492 118.518C69.088 117.218 68.1673 115.673 67.5399 113.974C66.9125 112.274 66.5908 110.452 66.593 108.613H66.599Z" fill="#DEDEDE"/>
<path d="M65.6451 95.1577H95.3401C96.0166 95.1577 96.5651 94.5435 96.5651 93.7857V92.6333C96.5651 91.8755 96.0166 91.2613 95.3401 91.2613H65.6451C64.9685 91.2613 64.4201 91.8755 64.4201 92.6333V93.7857C64.4201 94.5435 64.9685 95.1577 65.6451 95.1577Z" fill="#CCCCCC"/>
<path d="M74.2271 91.3052H71.6841V74.884C71.6841 74.6166 71.7789 74.3602 71.9477 74.1712C72.1164 73.9822 72.3454 73.876 72.5841 73.876H73.3271C73.5657 73.876 73.7947 73.9822 73.9634 74.1712C74.1322 74.3602 74.2271 74.6166 74.2271 74.884V91.3052Z" fill="#CCCCCC"/>
<path d="M89.845 91.3052H87.303V74.884C87.303 74.7516 87.3263 74.6205 87.3715 74.4982C87.4168 74.3759 87.4831 74.2648 87.5666 74.1712C87.6502 74.0776 87.7494 74.0034 87.8586 73.9527C87.9678 73.9021 88.0848 73.876 88.203 73.876H88.945C89.1837 73.876 89.4126 73.9822 89.5814 74.1712C89.7502 74.3602 89.845 74.6166 89.845 74.884V91.3052Z" fill="#CCCCCC"/>
<path d="M82.3331 91.3052H79.3121V83.3096C79.3129 82.9941 79.4253 82.6919 79.6248 82.4691C79.8242 82.2464 80.0944 82.1213 80.3761 82.1213H81.2691C81.5507 82.1213 81.8209 82.2464 82.0204 82.4691C82.2198 82.6919 82.3323 82.9941 82.3331 83.3096V91.3052Z" fill="#CCCCCC"/>
<path opacity="0.3" d="M73.712 91.2678V76.5725C73.7361 76.4079 73.7279 76.2394 73.6881 76.0787C73.6482 75.918 73.5776 75.769 73.4812 75.6419C73.3848 75.5148 73.2649 75.4127 73.1297 75.3426C72.9946 75.2726 72.8474 75.2364 72.6984 75.2364C72.5495 75.2364 72.4024 75.2726 72.2673 75.3426C72.1321 75.4127 72.0123 75.5148 71.9159 75.6419C71.8194 75.769 71.7488 75.918 71.7089 76.0787C71.6691 76.2394 71.661 76.4079 71.685 76.5725V75.2106C71.6853 74.8575 71.8106 74.5189 72.0335 74.2693C72.2565 74.0196 72.5587 73.8792 72.874 73.8789H73.04C73.3553 73.8792 73.6575 74.0196 73.8805 74.2693C74.1034 74.5189 74.2287 74.8575 74.229 75.2106V91.3025H71.685V91.2678H73.712Z" fill="#CCCCCC"/>
<path opacity="0.3" d="M89.334 91.2678V76.5725C89.3571 76.4082 89.3482 76.2402 89.3078 76.0801C89.2674 75.9201 89.1964 75.7717 89.0999 75.6453C89.0034 75.5189 88.8836 75.4174 88.7487 75.3478C88.6138 75.2782 88.467 75.2421 88.3185 75.2421C88.17 75.2421 88.0233 75.2782 87.8885 75.3478C87.7536 75.4174 87.6336 75.5189 87.5371 75.6453C87.4406 75.7717 87.3698 75.9201 87.3294 76.0801C87.289 76.2402 87.2799 76.4082 87.303 76.5725V75.2106C87.3033 74.8577 87.4286 74.5193 87.6513 74.2697C87.874 74.02 88.176 73.8795 88.4911 73.8789H88.657C88.9723 73.8792 89.2745 74.0196 89.4975 74.2693C89.7204 74.5189 89.8458 74.8575 89.8461 75.2106V91.3025H87.303V91.2678H89.334Z" fill="#CCCCCC"/>
<path opacity="0.3" d="M79.3121 84.3018V83.4495C79.3119 83.2748 79.3425 83.1018 79.4022 82.9404C79.4618 82.7789 79.5494 82.6323 79.6597 82.5088C79.7701 82.3853 79.9012 82.2874 80.0454 82.2207C80.1895 82.154 80.3441 82.1198 80.5001 82.1201H81.1451C81.3012 82.1198 81.4559 82.154 81.6002 82.2208C81.7445 82.2875 81.8756 82.3855 81.986 82.5091C82.0965 82.6327 82.184 82.7795 82.2437 82.941C82.3034 83.1026 82.3342 83.2758 82.3341 83.4506V91.3051H81.892V84.303C81.8922 84.128 81.8615 83.9548 81.8018 83.7932C81.7421 83.6315 81.6544 83.4847 81.544 83.361C81.4336 83.2373 81.3025 83.1392 81.1581 83.0724C81.0138 83.0055 80.8592 82.9712 80.7031 82.9713H80.503C80.1876 82.971 79.885 83.111 79.6617 83.3605C79.4384 83.61 79.3126 83.9486 79.3121 84.3018Z" fill="#CCCCCC"/>
<path d="M76.061 122.717V122.193C77.0537 122.47 78.073 122.61 79.0961 122.609H82.2531C83.3141 122.61 84.371 122.459 85.3981 122.161V122.721C85.3979 123.802 85.0787 124.852 84.4902 125.709C83.9018 126.566 83.0769 127.182 82.144 127.459C81.7769 127.57 81.3983 127.626 81.0181 127.625H80.441C80.1111 127.626 79.7822 127.583 79.4611 127.499C78.4944 127.251 77.6315 126.643 77.0138 125.774C76.3961 124.906 76.0601 123.828 76.061 122.717Z" fill="#CCCCCC"/>
<path opacity="0.2" d="M66.158 95.1567H94.824C95.0558 95.1629 95.2864 95.1172 95.5022 95.0221C95.718 94.9271 95.9146 94.7846 96.0806 94.6032C96.2465 94.4218 96.3782 94.2051 96.4683 93.9657C96.5583 93.7264 96.6047 93.4693 96.6047 93.2096C96.6047 92.9499 96.5583 92.6928 96.4683 92.4535C96.3782 92.2142 96.2465 91.9974 96.0806 91.816C95.9146 91.6346 95.718 91.4922 95.5022 91.3971C95.2864 91.3021 95.0558 91.2563 94.824 91.2625H66.158C65.697 91.2625 65.255 91.4676 64.9291 91.8326C64.6031 92.1977 64.42 92.6928 64.42 93.209C64.4199 93.4648 64.4647 93.718 64.552 93.9543C64.6393 94.1906 64.7673 94.4053 64.9287 94.5862C65.0901 94.767 65.2817 94.9105 65.4927 95.0084C65.7036 95.1063 65.9296 95.1567 66.158 95.1567ZM66.994 91.7967H87.699C87.8729 91.7845 88.0473 91.8124 88.2113 91.8785C88.3753 91.9447 88.5254 92.0478 88.6525 92.1814C88.7795 92.315 88.8807 92.4764 88.95 92.6556C89.0192 92.8347 89.0548 93.0278 89.0548 93.223C89.0548 93.4182 89.0192 93.6114 88.95 93.7905C88.8807 93.9697 88.7795 94.1311 88.6525 94.2647C88.5254 94.3983 88.3753 94.5014 88.2113 94.5676C88.0473 94.6337 87.8729 94.6616 87.699 94.6493H66.994C66.8118 94.678 66.6262 94.6626 66.4498 94.604C66.2734 94.5455 66.1103 94.4452 65.9714 94.31C65.8326 94.1748 65.7212 94.0078 65.6449 93.8203C65.5686 93.6328 65.5292 93.4291 65.5292 93.223C65.5292 93.017 65.5686 92.8133 65.6449 92.6258C65.7212 92.4383 65.8326 92.2713 65.9714 92.1361C66.1103 92.0009 66.2734 91.9006 66.4498 91.8421C66.6262 91.7835 66.8118 91.7681 66.994 91.7967Z" fill="#CCCCCC"/>
<g opacity="0.2">
<path opacity="0.2" d="M76.3501 122.819C76.266 122.79 76.1923 122.732 76.1403 122.652C76.0882 122.573 76.0604 122.477 76.061 122.378V122.193C77.0527 122.472 78.0716 122.613 79.0941 122.612H82.2521C83.3132 122.613 84.37 122.463 85.3971 122.164V122.724C85.3964 123.805 85.0771 124.855 84.4887 125.712C83.9003 126.569 83.0757 127.184 82.1431 127.463C81.7758 127.575 81.3968 127.632 81.0161 127.631H80.4381C80.3641 127.631 80.2851 127.631 80.2101 127.623C80.433 127.607 80.6538 127.565 80.869 127.497C81.5424 127.346 82.1536 126.953 82.6101 126.378C83.0667 125.803 83.3439 125.078 83.4 124.311C83.4178 124.191 83.4114 124.068 83.3814 123.95C83.3513 123.833 83.2984 123.725 83.2265 123.634C83.1545 123.542 83.0653 123.47 82.9652 123.422C82.8652 123.374 82.7569 123.351 82.6481 123.356C80.5366 123.527 78.4142 123.346 76.3501 122.819Z" fill="#CCCCCC"/>
</g>
<path opacity="0.53" d="M71.8431 107.163C72.0954 107.158 72.339 107.266 72.5203 107.463C72.7017 107.659 72.8058 107.928 72.81 108.211C72.819 108.771 73.0681 113.721 79.0671 113.623L80.6521 113.597C80.9 113.601 81.1368 113.713 81.3122 113.909C81.4876 114.106 81.5877 114.371 81.5914 114.649C81.595 114.926 81.5019 115.195 81.3317 115.397C81.1616 115.599 80.9278 115.719 80.68 115.731L79.095 115.756C71.114 115.887 70.909 108.56 70.904 108.252C70.8997 107.97 70.9959 107.696 71.1715 107.493C71.347 107.289 71.5875 107.172 71.84 107.167L71.8431 107.163Z" fill="white"/>
<path opacity="0.53" d="M71.8161 104.043C72.0678 104.033 72.3123 104.136 72.4963 104.329C72.6802 104.521 72.7885 104.788 72.7971 105.07V105.141C72.7901 105.421 72.687 105.686 72.5095 105.883C72.3319 106.079 72.0934 106.191 71.8439 106.195C71.5944 106.199 71.3531 106.095 71.1703 105.905C70.9876 105.715 70.8775 105.453 70.8631 105.174V105.101C70.8636 104.961 70.8887 104.823 70.9368 104.695C70.985 104.566 71.0554 104.449 71.1439 104.351C71.2324 104.252 71.3372 104.175 71.4526 104.122C71.5679 104.069 71.6915 104.042 71.8161 104.043Z" fill="white"/>
<path opacity="0.53" d="M71.8431 109.418C72.0954 109.413 72.339 109.521 72.5203 109.718C72.7017 109.914 72.8058 110.183 72.81 110.466C72.819 111.026 73.0681 115.976 79.0671 115.878L80.6521 115.852C80.9 115.856 81.1368 115.968 81.3122 116.164C81.4876 116.361 81.5877 116.626 81.5914 116.903C81.595 117.181 81.5019 117.45 81.3317 117.652C81.1616 117.854 80.9278 117.973 80.68 117.985L79.095 118.011C71.114 118.142 70.909 110.815 70.904 110.507C70.8997 110.224 70.9959 109.951 71.1715 109.748C71.347 109.544 71.5875 109.427 71.84 109.422L71.8431 109.418Z" fill="#CCCCCC"/>
<path opacity="0.53" d="M71.8161 106.297C72.0678 106.288 72.3123 106.391 72.4963 106.583C72.6802 106.776 72.7885 107.042 72.7971 107.324V107.396C72.7901 107.675 72.687 107.941 72.5095 108.137C72.3319 108.334 72.0934 108.445 71.8439 108.45C71.5944 108.454 71.3531 108.35 71.1703 108.16C70.9876 107.969 70.8775 107.707 70.8631 107.428V107.356C70.8636 107.216 70.8887 107.078 70.9368 106.949C70.985 106.82 71.0554 106.704 71.1439 106.605C71.2324 106.507 71.3372 106.429 71.4526 106.376C71.5679 106.324 71.6915 106.297 71.8161 106.297Z" fill="#CCCCCC"/>
<path d="M146.74 39.4177V45.0177" stroke="#CCCCCC" stroke-width="2" stroke-miterlimit="10" stroke-linecap="round"/>
<path d="M149.24 42.2178H144.24" stroke="#CCCCCC" stroke-width="2" stroke-miterlimit="10" stroke-linecap="round"/>
<path d="M43.022 1V6.59992" stroke="#CCCCCC" stroke-width="2" stroke-miterlimit="10" stroke-linecap="round"/>
<path d="M45.522 3.7998H40.522" stroke="#CCCCCC" stroke-width="2" stroke-miterlimit="10" stroke-linecap="round"/>
<path d="M163 86.1401V90.6201" stroke="#CCCCCC" stroke-width="2" stroke-miterlimit="10" stroke-linecap="round"/>
<path d="M165 88.3801H161" stroke="#CCCCCC" stroke-width="2" stroke-miterlimit="10" stroke-linecap="round"/>
<path d="M122 7.46802V16.4279" stroke="#CCCCCC" stroke-width="2" stroke-miterlimit="10" stroke-linecap="round"/>
<path d="M126 11.948H118" stroke="#CCCCCC" stroke-width="2" stroke-miterlimit="10" stroke-linecap="round"/>
<path d="M12.142 49.5234V54.0034" stroke="#CCCCCC" stroke-miterlimit="10" stroke-linecap="round"/>
<path d="M14.142 51.7634H10.142" stroke="#CCCCCC" stroke-miterlimit="10" stroke-linecap="round"/>
<path d="M13.166 89.2V92.5599" stroke="#CCCCCC" stroke-miterlimit="10" stroke-linecap="round"/>
<path d="M14.666 90.8799H11.666" stroke="#CCCCCC" stroke-miterlimit="10" stroke-linecap="round"/>
<path d="M5 102.582V111.541" stroke="#CCCCCC" stroke-width="2" stroke-miterlimit="10" stroke-linecap="round"/>
<path d="M9 107.062H1" stroke="#CCCCCC" stroke-width="2" stroke-miterlimit="10" stroke-linecap="round"/>
<path d="M134.741 114.132C136.122 114.132 137.241 112.878 137.241 111.332C137.241 109.786 136.122 108.532 134.741 108.532C133.36 108.532 132.241 109.786 132.241 111.332C132.241 112.878 133.36 114.132 134.741 114.132Z" stroke="#CCCCCC" stroke-miterlimit="10" stroke-linecap="round"/>
</svg>