<svg width="24" height="24" viewBox="0 0 24 24" fill="none" xmlns="http://www.w3.org/2000/svg">
	<path fill-rule="evenodd" clip-rule="evenodd" d="M16.4326 6.31273C15.2979 6.31273 14.3404 5.55636 14.3404 4.59636V0H3.98582C2.88653 0 2 0.727273 2 1.62909V22.3709C2 23.2727 2.88653 24 3.98582 24H20.0142C21.1135 24 22 23.2727 22 22.3709V6.31273H16.4326ZM16.8497 5.76H22L15 0V4.21608C15 5.07711 15.8342 5.76 16.8497 5.76ZM17.5 9C17.7761 9 18 9.22386 18 9.5V18.5C18 18.7761 17.7761 19 17.5 19H6.5C6.22386 19 6 18.7761 6 18.5V9.5C6 9.22386 6.22386 9 6.5 9H17.5ZM7.35714 10C7.081 10 6.85714 10.2239 6.85714 10.5V12.5C6.85714 12.7761 7.081 13 7.35714 13H10.6429C10.919 13 11.1429 12.7761 11.1429 12.5V10.5C11.1429 10.2239 10.919 10 10.6429 10H7.35714ZM7.35714 14C7.081 14 6.85714 14.2239 6.85714 14.5V17.5C6.85714 17.7761 7.081 18 7.35714 18H10.6429C10.919 18 11.1429 17.7761 11.1429 17.5V14.5C11.1429 14.2239 10.919 14 10.6429 14H7.35714ZM16.6429 14C16.919 14 17.1429 14.2239 17.1429 14.5V17.5C17.1429 17.7761 16.919 18 16.6429 18H12.5C12.2239 18 12 17.7761 12 17.5V14.5C12 14.2239 12.2239 14 12.5 14H16.6429ZM12.5 10C12.2239 10 12 10.2239 12 10.5V12.5C12 12.7761 12.2239 13 12.5 13H16.6429C16.919 13 17.1429 12.7761 17.1429 12.5V10.5C17.1429 10.2239 16.919 10 16.6429 10H12.5Z" fill="#40865C"/>
</svg>
