<svg width="24" height="24" viewBox="0 0 24 24" fill="none" xmlns="http://www.w3.org/2000/svg">
	<path fill-rule="evenodd" clip-rule="evenodd" d="M16.4326 6.31273C15.2979 6.31273 14.3404 5.55636 14.3404 4.59636V0H3.98582C2.88653 0 2 0.727273 2 1.62909V22.3709C2 23.2727 2.88653 24 3.98582 24H20.0142C21.1135 24 22 23.2727 22 22.3709V6.31273H16.4326ZM16.8497 5.76H22L15 0V4.21608C15 5.07711 15.8342 5.76 16.8497 5.76ZM6.55556 9C6.24873 9 6 9.24873 6 9.55556C6 9.86238 6.24873 10.1111 6.55556 10.1111H17.4444C17.7513 10.1111 18 9.86238 18 9.55556C18 9.24873 17.7513 9 17.4444 9H6.55556ZM6.55556 13.4444C6.24873 13.4444 6 13.6932 6 14C6 14.3068 6.24873 14.5556 6.55556 14.5556H17.4444C17.7513 14.5556 18 14.3068 18 14C18 13.6932 17.7513 13.4444 17.4444 13.4444H6.55556ZM6 18.4444C6 18.1376 6.24873 17.8889 6.55556 17.8889H17.4444C17.7513 17.8889 18 18.1376 18 18.4444C18 18.7513 17.7513 19 17.4444 19H6.55556C6.24873 19 6 18.7513 6 18.4444Z" fill="#446995"/>
</svg>
